{
	"asset": {
		"generator": "Tilt Brush 15.2.4484bbdd5",
		"version": "1.1",
		"copyright": "Unknown."
	},
	"buffers": {
		"sketch": {
			"byteLength": 894960,
			"type": "arraybuffer",
			"uri": "sketch.bin"
		}
	},
	"accessors": {
		"accessor_position_Wire_4391385a-cf83-4396-9e33-31e4e4930b27_0_0": {
			"bufferView": "vec3BufferView",
			"byteOffset": 0,
			"byteStride": 12,
			"componentType": 5126,
			"count": 12045,
			"max": [ 1.23732, 1.899487, 1.489501 ],
			"min": [ -0.5784545, 1.057243, -0.3068897 ],
			"type": "VEC3"
		 },
		"accessor_normal_Wire_4391385a-cf83-4396-9e33-31e4e4930b27_0_0": {
			"bufferView": "vec3BufferView",
			"byteOffset": 144540,
			"byteStride": 12,
			"componentType": 5126,
			"count": 12045,
			"max": [ 0.999624, 0.9999194, 0.9999504 ],
			"min": [ -0.999624, -0.9999194, -0.9999504 ],
			"type": "VEC3"
		 },
		"accessor_color_Wire_4391385a-cf83-4396-9e33-31e4e4930b27_0_0": {
			"bufferView": "vec4BufferView",
			"byteOffset": 0,
			"byteStride": 16,
			"componentType": 5126,
			"count": 12045,
			"max": [ 0.8823529, 0.2117647, 0.2117647, 1 ],
			"min": [ 0.8823529, 0.2117647, 0.2117647, 1 ],
			"type": "VEC4"
		 },
		"accessor_tangent_Wire_4391385a-cf83-4396-9e33-31e4e4930b27_0_0": {
			"bufferView": "vec4BufferView",
			"byteOffset": 192720,
			"byteStride": 16,
			"componentType": 5126,
			"count": 12045,
			"max": [ 0.9976156, 0.9996115, 0.9974093, 1 ],
			"min": [ -0.9936383, -0.9998584, -0.999886, 1 ],
			"type": "VEC4"
		 },
		"accessor_uv0_Wire_4391385a-cf83-4396-9e33-31e4e4930b27_0_0": {
			"bufferView": "vec2BufferView",
			"byteOffset": 0,
			"byteStride": 8,
			"componentType": 5126,
			"count": 12045,
			"max": [ 3.035736, 1 ],
			"min": [ -0.02637839, 0 ],
			"type": "VEC2"
		 },
		"accessor_indices_0_Wire_4391385a-cf83-4396-9e33-31e4e4930b27_0_0": {
			"bufferView": "ushortBufferView",
			"byteOffset": 0,
			"byteStride": 0,
			"componentType": 5123,
			"count": 62040,
			"max": [ 12044 ],
			"min": [ 0 ],
			"type": "SCALAR"
		 }
	},
	"bufferViews": {
		"ushortBufferView": {
			"buffer": "sketch",
			"byteLength": 124080,
			"byteOffset": 0,
			"target": 34963
		},
		"vec2BufferView": {
			"buffer": "sketch",
			"byteLength": 96360,
			"byteOffset": 124080,
			"target": 34962
		},
		"vec3BufferView": {
			"buffer": "sketch",
			"byteLength": 289080,
			"byteOffset": 220440,
			"target": 34962
		},
		"vec4BufferView": {
			"buffer": "sketch",
			"byteLength": 385440,
			"byteOffset": 509520,
			"target": 34962
		}
	},
	"meshes": {
		"mesh_Wire_4391385a-cf83-4396-9e33-31e4e4930b27_0_0": {
			"name": "mesh_Wire_4391385a-cf83-4396-9e33-31e4e4930b27_0_0",
			"primitives": [
				{
					"attributes": {
						"POSITION": "accessor_position_Wire_4391385a-cf83-4396-9e33-31e4e4930b27_0_0",
						"NORMAL": "accessor_normal_Wire_4391385a-cf83-4396-9e33-31e4e4930b27_0_0",
						"COLOR": "accessor_color_Wire_4391385a-cf83-4396-9e33-31e4e4930b27_0_0",
						"TANGENT": "accessor_tangent_Wire_4391385a-cf83-4396-9e33-31e4e4930b27_0_0",
						"TEXCOORD_0": "accessor_uv0_Wire_4391385a-cf83-4396-9e33-31e4e4930b27_0_0"
					},
					"indices": "accessor_indices_0_Wire_4391385a-cf83-4396-9e33-31e4e4930b27_0_0",
					"material": "material_4391385a-cf83-4396-9e33-31e4e4930b27",
					"mode": 4
				}
			]
		}
	},
	"shaders": {
		"vertex_4391385a-cf83-4396-9e33-31e4e4930b27": {
			"type": 35633,
			"uri": "https://www.tiltbrush.com/shaders/brushes/Wire-4391385a-cf83-4396-9e33-31e4e4930b27/Wire-4391385a-cf83-4396-9e33-31e4e4930b27-v10.0-vertex.glsl"
		},
		"fragment_4391385a-cf83-4396-9e33-31e4e4930b27": {
			"type": 35632,
			"uri": "https://www.tiltbrush.com/shaders/brushes/Wire-4391385a-cf83-4396-9e33-31e4e4930b27/Wire-4391385a-cf83-4396-9e33-31e4e4930b27-v10.0-fragment.glsl"
		}
	},
	"programs": {
		"program_4391385a-cf83-4396-9e33-31e4e4930b27": {
			"attributes": [
				"a_position",
				"a_normal",
				"a_color",
				"a_tangent",
				"a_texcoord0"				
			],
			"vertexShader": "vertex_4391385a-cf83-4396-9e33-31e4e4930b27",
			"fragmentShader": "fragment_4391385a-cf83-4396-9e33-31e4e4930b27"
		}
	},
	"techniques": {
		"technique_4391385a-cf83-4396-9e33-31e4e4930b27": {
			"program": "program_4391385a-cf83-4396-9e33-31e4e4930b27",
			"parameters": {
				"position": {
					"type": 35665,
					"semantic": "POSITION"
				},
				"normal": {
					"type": 35665,
					"semantic": "NORMAL"
				},
				"color": {
					"type": 35666,
					"semantic": "COLOR"
				},
				"tangent": {
					"type": 35666,
					"semantic": "TANGENT"
				},
				"texcoord0": {
					"type": 35664,
					"semantic": "TEXCOORD_0"
				},
				"modelViewMatrix": {
					"type": 35676,
					"semantic": "MODELVIEW"
				},
				"projectionMatrix": {
					"type": 35676,
					"semantic": "PROJECTION"
				},
				"normalMatrix": {
					"type": 35675,
					"semantic": "MODELVIEWINVERSETRANSPOSE"
				},
				"SceneLight_0_matrix": {
					"type": 35676,
					"semantic": "MODELVIEW",
					"node": "node_SceneLight_0_-2792"
				},
				"SceneLight_0_color": {
					"type": 35666,
					"node": "node_SceneLight_0_-2792"
				},
				"SceneLight_1_matrix": {
					"type": 35676,
					"semantic": "MODELVIEW",
					"node": "node_SceneLight_1_-2798"
				},
				"SceneLight_1_color": {
					"type": 35666,
					"node": "node_SceneLight_1_-2798"
				},
				"ambient_light_color": {
					"type": 35666
				},
				"Cutoff": {
					"type": 5126
				}				
			},
			"attributes": {
				"a_position": "position",
				"a_normal": "normal",
				"a_color": "color",
				"a_tangent": "tangent",
				"a_texcoord0": "texcoord0"				
			},
			"uniforms": {
				"u_modelViewMatrix": "modelViewMatrix",
				"u_projectionMatrix": "projectionMatrix",
				"u_normalMatrix": "normalMatrix",
				"u_SceneLight_0_matrix": "SceneLight_0_matrix",
				"u_SceneLight_0_color": "SceneLight_0_color",
				"u_SceneLight_1_matrix": "SceneLight_1_matrix",
				"u_SceneLight_1_color": "SceneLight_1_color",
				"u_ambient_light_color": "ambient_light_color",
				"u_Cutoff": "Cutoff"				
			},
			"states": {
				"enable": [
					2929
				],
				"functions": {
					"depthMask": [true]
				}
			}
		}
	},
	"materials": {
		"material_4391385a-cf83-4396-9e33-31e4e4930b27": {
			"technique": "technique_4391385a-cf83-4396-9e33-31e4e4930b27",
			"values": {
				"SceneLight_0_color": [0.7780392, 0.8156863, 0.9913726, 1],
				"SceneLight_1_color": [0.4282353, 0.4211765, 0.3458824, 1],
				"ambient_light_color": [0.3921569, 0.3921569, 0.3921569, 1],
				"Cutoff": 0.067				
			},
			"name": "material_4391385a-cf83-4396-9e33-31e4e4930b27"
		}
	},
	"nodes": {
		"node_Wire_4391385a-cf83-4396-9e33-31e4e4930b27_0_0": {
			"name": "node_Wire_4391385a-cf83-4396-9e33-31e4e4930b27_0_0",
			"meshes": [
				"mesh_Wire_4391385a-cf83-4396-9e33-31e4e4930b27_0_0"
			],
			"matrix": [1, 0, 0, 0, 0, 1, 0, 0, 0, 0, 1, 0, 0, 0, 0, 1]
		},
		"node_SceneLight_0_-2792": {
			"name": "node_SceneLight_0_-2792",
			"light": "SceneLight_0",
			"matrix": [0.898794, 0.2191856, -0.3796406, 0, -0.4383712, 0.449397, -0.7783785, 0, -1.490116E-08, 0.8660254, 0.4999999, 0, 0, 0.021875, 0.05458749, 1]
		},
		"node_SceneLight_1_-2798": {
			"name": "node_SceneLight_1_-2798",
			"light": "SceneLight_1",
			"matrix": [0.7660444, -0.4924039, -0.4131759, 0, -0.6427876, -0.5868242, -0.4924039, 0, 8.940697E-08, 0.6427876, -0.7660446, 0, 0, 0.021875, 0.05458749, 1]
		}
	},
	"scene": "defaultScene",
	"scenes": {
		"defaultScene": {
			"nodes": [
				"node_Wire_4391385a-cf83-4396-9e33-31e4e4930b27_0_0",
				"node_SceneLight_0_-2792",
				"node_SceneLight_1_-2798"
			],
			"extras": {
				"TB_EnvironmentGuid": "ab080599-e465-4a6d-8587-43bf495af68b",
				"TB_Environment": "Standard",
				"TB_SkyColorA": "0.2745098, 0.2745098, 0.3176471",
				"TB_SkyColorB": "0.03529412, 0.03529412, 0.08627451",
				"TB_SkyGradientDirection": "0, 1, 0",
				"TB_FogColor": "0.1647059, 0.1647059, 0.2078431",
				"TB_FogDensity": "0.0025",
				"TB_SkyColorHorizon": "0.2745098, 0.2745098, 0.3176471",
				"TB_SkyColorZenith": "0.03529412, 0.03529412, 0.08627451"
			}
		}
	}
}