{
	"asset": {
		"generator": "Tilt Brush 15.2.4484bbdd5",
		"version": "1.1",
		"copyright": "Unknown."
	},
	"buffers": {
		"sketch": {
			"byteLength": 64148,
			"type": "arraybuffer",
			"uri": "sketch.bin"
		}
	},
	"accessors": {
		"accessor_position_Smoke_70d79cca-b159-4f35-990c-f02193947fe8_0_0": {
			"bufferView": "vec3BufferView",
			"byteOffset": 0,
			"byteStride": 12,
			"componentType": 5126,
			"count": 812,
			"max": [ 4.154573, 3.085594, 3.151068 ],
			"min": [ -2.214697, 0.3622538, -2.93582 ],
			"type": "VEC3"
		 },
		"accessor_normal_Smoke_70d79cca-b159-4f35-990c-f02193947fe8_0_0": {
			"bufferView": "vec3BufferView",
			"byteOffset": 9744,
			"byteStride": 12,
			"componentType": 5126,
			"count": 812,
			"max": [ 3.599236, 2.468105, 2.47077 ],
			"min": [ -1.592491, 0.9777503, -2.471197 ],
			"type": "VEC3"
		 },
		"accessor_color_Smoke_70d79cca-b159-4f35-990c-f02193947fe8_0_0": {
			"bufferView": "vec4BufferView",
			"byteOffset": 0,
			"byteStride": 16,
			"componentType": 5126,
			"count": 812,
			"max": [ 0.8392157, 0.5294118, 0.7764706, 1 ],
			"min": [ 0.8392157, 0.5294118, 0.7764706, 1 ],
			"type": "VEC4"
		 },
		"accessor_vertexId_Smoke_70d79cca-b159-4f35-990c-f02193947fe8_0_0": {
			"bufferView": "floatBufferView",
			"byteOffset": 0,
			"byteStride": 0,
			"componentType": 5126,
			"count": 812,
			"max": [ 811 ],
			"min": [ 0 ],
			"type": "SCALAR"
		 },
		"accessor_uv0_Smoke_70d79cca-b159-4f35-990c-f02193947fe8_0_0": {
			"bufferView": "vec4BufferView",
			"byteOffset": 12992,
			"byteStride": 16,
			"componentType": 5126,
			"count": 812,
			"max": [ 1, 1, 3.071533, 8977.835 ],
			"min": [ 0, 0, -3.038862, 8914.299 ],
			"type": "VEC4"
		 },
		"accessor_uv1_Smoke_70d79cca-b159-4f35-990c-f02193947fe8_0_0": {
			"bufferView": "vec4BufferView",
			"byteOffset": 25984,
			"byteStride": 16,
			"componentType": 5126,
			"count": 812,
			"max": [ 3.562754, 2.369713, 2.480417, 811 ],
			"min": [ -1.571329, 1.039549, -2.410526, 0 ],
			"type": "VEC4"
		 },
		"accessor_indices_0_Smoke_70d79cca-b159-4f35-990c-f02193947fe8_0_0": {
			"bufferView": "ushortBufferView",
			"byteOffset": 0,
			"byteStride": 0,
			"componentType": 5123,
			"count": 1218,
			"max": [ 811 ],
			"min": [ 0 ],
			"type": "SCALAR"
		 }
	},
	"bufferViews": {
		"ushortBufferView": {
			"buffer": "sketch",
			"byteLength": 2436,
			"byteOffset": 0,
			"target": 34963
		},
		"floatBufferView": {
			"buffer": "sketch",
			"byteLength": 3248,
			"byteOffset": 2436,
			"target": 34962
		},
		"vec3BufferView": {
			"buffer": "sketch",
			"byteLength": 19488,
			"byteOffset": 5684,
			"target": 34962
		},
		"vec4BufferView": {
			"buffer": "sketch",
			"byteLength": 38976,
			"byteOffset": 25172,
			"target": 34962
		}
	},
	"meshes": {
		"mesh_Smoke_70d79cca-b159-4f35-990c-f02193947fe8_0_0": {
			"name": "mesh_Smoke_70d79cca-b159-4f35-990c-f02193947fe8_0_0",
			"primitives": [
				{
					"attributes": {
						"POSITION": "accessor_position_Smoke_70d79cca-b159-4f35-990c-f02193947fe8_0_0",
						"NORMAL": "accessor_normal_Smoke_70d79cca-b159-4f35-990c-f02193947fe8_0_0",
						"COLOR": "accessor_color_Smoke_70d79cca-b159-4f35-990c-f02193947fe8_0_0",
						"VERTEXID": "accessor_vertexId_Smoke_70d79cca-b159-4f35-990c-f02193947fe8_0_0",
						"TEXCOORD_0": "accessor_uv0_Smoke_70d79cca-b159-4f35-990c-f02193947fe8_0_0",
						"TEXCOORD_1": "accessor_uv1_Smoke_70d79cca-b159-4f35-990c-f02193947fe8_0_0"
					},
					"indices": "accessor_indices_0_Smoke_70d79cca-b159-4f35-990c-f02193947fe8_0_0",
					"material": "material_70d79cca-b159-4f35-990c-f02193947fe8",
					"mode": 4
				}
			]
		}
	},
	"shaders": {
		"vertex_70d79cca-b159-4f35-990c-f02193947fe8": {
			"type": 35633,
			"uri": "https://www.tiltbrush.com/shaders/brushes/Smoke-70d79cca-b159-4f35-990c-f02193947fe8/Smoke-70d79cca-b159-4f35-990c-f02193947fe8-v10.0-vertex.glsl"
		},
		"fragment_70d79cca-b159-4f35-990c-f02193947fe8": {
			"type": 35632,
			"uri": "https://www.tiltbrush.com/shaders/brushes/Smoke-70d79cca-b159-4f35-990c-f02193947fe8/Smoke-70d79cca-b159-4f35-990c-f02193947fe8-v10.0-fragment.glsl"
		}
	},
	"programs": {
		"program_70d79cca-b159-4f35-990c-f02193947fe8": {
			"attributes": [
				"a_position",
				"a_normal",
				"a_color",
				"a_vertexId",
				"a_texcoord0",
				"a_texcoord1"				
			],
			"vertexShader": "vertex_70d79cca-b159-4f35-990c-f02193947fe8",
			"fragmentShader": "fragment_70d79cca-b159-4f35-990c-f02193947fe8"
		}
	},
	"techniques": {
		"technique_70d79cca-b159-4f35-990c-f02193947fe8": {
			"program": "program_70d79cca-b159-4f35-990c-f02193947fe8",
			"parameters": {
				"position": {
					"type": 35665,
					"semantic": "POSITION"
				},
				"normal": {
					"type": 35665,
					"semantic": "NORMAL"
				},
				"color": {
					"type": 35666,
					"semantic": "COLOR"
				},
				"vertexId": {
					"type": 5126
				},
				"texcoord0": {
					"type": 35666,
					"semantic": "TEXCOORD_0"
				},
				"texcoord1": {
					"type": 35666,
					"semantic": "TEXCOORD_1"
				},
				"modelViewMatrix": {
					"type": 35676,
					"semantic": "MODELVIEW"
				},
				"projectionMatrix": {
					"type": 35676,
					"semantic": "PROJECTION"
				},
				"normalMatrix": {
					"type": 35675,
					"semantic": "MODELVIEWINVERSETRANSPOSE"
				},
				"SceneLight_0_matrix": {
					"type": 35676,
					"semantic": "MODELVIEW",
					"node": "node_SceneLight_0_-2792"
				},
				"SceneLight_0_color": {
					"type": 35666,
					"node": "node_SceneLight_0_-2792"
				},
				"SceneLight_1_matrix": {
					"type": 35676,
					"semantic": "MODELVIEW",
					"node": "node_SceneLight_1_-2798"
				},
				"SceneLight_1_color": {
					"type": 35666,
					"node": "node_SceneLight_1_-2798"
				},
				"ambient_light_color": {
					"type": 35666
				},
				"ScrollRate": {
					"type": 5126
				},
				"TintColor": {
					"type": 35666
				},
				"MainTex_TexelSize": {
					"type": 35666
				},
				"MainTex": {
					"type": 35678
				}				
			},
			"attributes": {
				"a_position": "position",
				"a_normal": "normal",
				"a_color": "color",
				"a_vertexId": "vertexId",
				"a_texcoord0": "texcoord0",
				"a_texcoord1": "texcoord1"				
			},
			"uniforms": {
				"u_modelViewMatrix": "modelViewMatrix",
				"u_projectionMatrix": "projectionMatrix",
				"u_normalMatrix": "normalMatrix",
				"u_SceneLight_0_matrix": "SceneLight_0_matrix",
				"u_SceneLight_0_color": "SceneLight_0_color",
				"u_SceneLight_1_matrix": "SceneLight_1_matrix",
				"u_SceneLight_1_color": "SceneLight_1_color",
				"u_ambient_light_color": "ambient_light_color",
				"u_ScrollRate": "ScrollRate",
				"u_TintColor": "TintColor",
				"u_MainTex_TexelSize": "MainTex_TexelSize",
				"u_MainTex": "MainTex"				
			},
			"states": {
				"enable": [
					2929,
					3042
				],
				"functions": {
					"blendFuncSeparate": [1, 1, 1, 1],
					"depthMask": [false]
				}
			}
		}
	},
	"samplers": {
		"sampler_LINEAR_LINEAR_REPEAT": {
			"magFilter": 9729,
			"minFilter": 9987,
			"wrapS": 10497,
			"wrapT": 10497
		}
	},
	"textures": {
		"texture_70d79cca-b159-4f35-990c-f02193947fe8_MainTex": {
			"format": 6408,
			"internalFormat": 6408,
			"sampler": "sampler_LINEAR_LINEAR_REPEAT",
			"source": "image_70d79cca-b159-4f35-990c-f02193947fe8_MainTex",
			"target": 3553,
			"type": 5121
		}
	},
	"images": {
		"image_70d79cca-b159-4f35-990c-f02193947fe8_MainTex": {
			"uri": "https://www.tiltbrush.com/shaders/brushes/Smoke-70d79cca-b159-4f35-990c-f02193947fe8/Smoke-70d79cca-b159-4f35-990c-f02193947fe8-v10.0-MainTex.png"
		}
	},
	"materials": {
		"material_70d79cca-b159-4f35-990c-f02193947fe8": {
			"technique": "technique_70d79cca-b159-4f35-990c-f02193947fe8",
			"values": {
				"SceneLight_0_color": [0.7780392, 0.8156863, 0.9913726, 1],
				"SceneLight_1_color": [0.4282353, 0.4211765, 0.3458824, 1],
				"ambient_light_color": [0.3921569, 0.3921569, 0.3921569, 1],
				"ScrollRate": 0.75,
				"TintColor": [1, 1, 1, 1],
				"MainTex_TexelSize": [0.001953125, 0.001953125, 512, 512],
				"MainTex": "texture_70d79cca-b159-4f35-990c-f02193947fe8_MainTex"				
			},
			"name": "material_70d79cca-b159-4f35-990c-f02193947fe8"
		}
	},
	"nodes": {
		"node_Smoke_70d79cca-b159-4f35-990c-f02193947fe8_0_0": {
			"name": "node_Smoke_70d79cca-b159-4f35-990c-f02193947fe8_0_0",
			"meshes": [
				"mesh_Smoke_70d79cca-b159-4f35-990c-f02193947fe8_0_0"
			],
			"matrix": [1, 0, 0, 0, 0, 1, 0, 0, 0, 0, 1, 0, 0, 0, 0, 1]
		},
		"node_SceneLight_0_-2792": {
			"name": "node_SceneLight_0_-2792",
			"light": "SceneLight_0",
			"matrix": [0.898794, 0.2191856, -0.3796406, 0, -0.4383712, 0.449397, -0.7783785, 0, -1.490116E-08, 0.8660254, 0.4999999, 0, 0, 0.021875, 0.05458749, 1]
		},
		"node_SceneLight_1_-2798": {
			"name": "node_SceneLight_1_-2798",
			"light": "SceneLight_1",
			"matrix": [0.7660444, -0.4924039, -0.4131759, 0, -0.6427876, -0.5868242, -0.4924039, 0, 8.940697E-08, 0.6427876, -0.7660446, 0, 0, 0.021875, 0.05458749, 1]
		}
	},
	"scene": "defaultScene",
	"scenes": {
		"defaultScene": {
			"nodes": [
				"node_Smoke_70d79cca-b159-4f35-990c-f02193947fe8_0_0",
				"node_SceneLight_0_-2792",
				"node_SceneLight_1_-2798"
			],
			"extras": {
				"TB_EnvironmentGuid": "ab080599-e465-4a6d-8587-43bf495af68b",
				"TB_Environment": "Standard",
				"TB_SkyColorA": "0.2745098, 0.2745098, 0.3176471",
				"TB_SkyColorB": "0.03529412, 0.03529412, 0.08627451",
				"TB_SkyGradientDirection": "0, 1, 0",
				"TB_FogColor": "0.1647059, 0.1647059, 0.2078431",
				"TB_FogDensity": "0.0025",
				"TB_SkyColorHorizon": "0.2745098, 0.2745098, 0.3176471",
				"TB_SkyColorZenith": "0.03529412, 0.03529412, 0.08627451"
			}
		}
	}
}