{
	"asset": {
		"generator": "Blocks 3.0.0_OVR_RC1",
		"version": "1.1",
		"copyright": "Unknown"
	},
	"buffers": {
		"model": {
			"byteLength": 2952768,
			"type": "arraybuffer",
			"uri": "model.bin"
		}
	},
	"accessors": {
		"accessor_position_m0-PolyPaper21_-962796": {
			"bufferView": "vec3BufferView",
			"byteOffset": 0,
			"byteStride": 12,
			"componentType": 5126,
			"count": 19992,
			"max": [ 0.6633413, 2.874693, 0.3709623 ],
			"min": [ -0.1905753, 1.536049, -0.355648 ],
			"type": "VEC3"
		 },
		"accessor_normal_m0-PolyPaper21_-962796": {
			"bufferView": "vec3BufferView",
			"byteOffset": 239904,
			"byteStride": 12,
			"componentType": 5126,
			"count": 19992,
			"max": [ 0.9993179, 0.9998378, 0.9994478 ],
			"min": [ -0.9993179, -0.9998378, -0.9994478 ],
			"type": "VEC3"
		 },
		"accessor_color_m0-PolyPaper21_-962796": {
			"bufferView": "vec4BufferView",
			"byteOffset": 0,
			"byteStride": 16,
			"componentType": 5126,
			"count": 19992,
			"max": [ 0.972549, 0.7333333, 0.8156863, 1 ],
			"min": [ 0.9568627, 0.2627451, 0.2117647, 1 ],
			"type": "VEC4"
		 },
		"accessor_indices_0_m0-PolyPaper21_-962796": {
			"bufferView": "ushortBufferView",
			"byteOffset": 0,
			"byteStride": 0,
			"componentType": 5123,
			"count": 28224,
			"max": [ 19991 ],
			"min": [ 0 ],
			"type": "SCALAR"
		 },
		"accessor_position_m1-PolyPaper8_-962802": {
			"bufferView": "vec3BufferView",
			"byteOffset": 479808,
			"byteStride": 12,
			"componentType": 5126,
			"count": 19992,
			"max": [ 0.6695111, 2.513859, 0.3466673 ],
			"min": [ 0.01933775, 0.9260282, -0.3164979 ],
			"type": "VEC3"
		 },
		"accessor_normal_m1-PolyPaper8_-962802": {
			"bufferView": "vec3BufferView",
			"byteOffset": 719712,
			"byteStride": 12,
			"componentType": 5126,
			"count": 19992,
			"max": [ 0.9999658, 0.9998277, 0.9998759 ],
			"min": [ -0.9999658, -0.9998277, -0.9998759 ],
			"type": "VEC3"
		 },
		"accessor_color_m1-PolyPaper8_-962802": {
			"bufferView": "vec4BufferView",
			"byteOffset": 319872,
			"byteStride": 16,
			"componentType": 5126,
			"count": 19992,
			"max": [ 0.972549, 0.7333333, 0.8156863, 1 ],
			"min": [ 0.9568627, 0.2627451, 0.2117647, 1 ],
			"type": "VEC4"
		 },
		"accessor_indices_0_m1-PolyPaper8_-962802": {
			"bufferView": "ushortBufferView",
			"byteOffset": 56448,
			"byteStride": 0,
			"componentType": 5123,
			"count": 28224,
			"max": [ 19991 ],
			"min": [ 0 ],
			"type": "SCALAR"
		 },
		"accessor_position_m2-PolyPaper8_-962808": {
			"bufferView": "vec3BufferView",
			"byteOffset": 959616,
			"byteStride": 12,
			"componentType": 5126,
			"count": 19992,
			"max": [ 0.9551653, 1.996961, 0.2946109 ],
			"min": [ 0.0500573, 1.013315, -0.2355994 ],
			"type": "VEC3"
		 },
		"accessor_normal_m2-PolyPaper8_-962808": {
			"bufferView": "vec3BufferView",
			"byteOffset": 1199520,
			"byteStride": 12,
			"componentType": 5126,
			"count": 19992,
			"max": [ 0.9993004, 0.9995173, 0.9988997 ],
			"min": [ -0.9993008, -0.9995176, -0.9988996 ],
			"type": "VEC3"
		 },
		"accessor_color_m2-PolyPaper8_-962808": {
			"bufferView": "vec4BufferView",
			"byteOffset": 639744,
			"byteStride": 16,
			"componentType": 5126,
			"count": 19992,
			"max": [ 0.972549, 0.7333333, 0.8156863, 1 ],
			"min": [ 0.9568627, 0.2627451, 0.2117647, 1 ],
			"type": "VEC4"
		 },
		"accessor_indices_0_m2-PolyPaper8_-962808": {
			"bufferView": "ushortBufferView",
			"byteOffset": 112896,
			"byteStride": 0,
			"componentType": 5123,
			"count": 28224,
			"max": [ 19991 ],
			"min": [ 0 ],
			"type": "SCALAR"
		 },
		"accessor_position_m3-PolyPaper8_-962814": {
			"bufferView": "vec3BufferView",
			"byteOffset": 1439424,
			"byteStride": 12,
			"componentType": 5126,
			"count": 8976,
			"max": [ 0.568253, 2.821651, 0.40949 ],
			"min": [ 0.03456294, 1.953662, -0.390327 ],
			"type": "VEC3"
		 },
		"accessor_normal_m3-PolyPaper8_-962814": {
			"bufferView": "vec3BufferView",
			"byteOffset": 1547136,
			"byteStride": 12,
			"componentType": 5126,
			"count": 8976,
			"max": [ 0.9996788, 0.9997312, 0.998245 ],
			"min": [ -0.9996789, -0.9997313, -0.998245 ],
			"type": "VEC3"
		 },
		"accessor_color_m3-PolyPaper8_-962814": {
			"bufferView": "vec4BufferView",
			"byteOffset": 959616,
			"byteStride": 16,
			"componentType": 5126,
			"count": 8976,
			"max": [ 0.972549, 0.7333333, 0.8156863, 1 ],
			"min": [ 0.9568627, 0.2627451, 0.2117647, 1 ],
			"type": "VEC4"
		 },
		"accessor_indices_0_m3-PolyPaper8_-962814": {
			"bufferView": "ushortBufferView",
			"byteOffset": 169344,
			"byteStride": 0,
			"componentType": 5123,
			"count": 12672,
			"max": [ 8975 ],
			"min": [ 0 ],
			"type": "SCALAR"
		 }
	},
	"bufferViews": {
		"ushortBufferView": {
			"buffer": "model",
			"byteLength": 194688,
			"byteOffset": 0,
			"target": 34963
		},
		"vec3BufferView": {
			"buffer": "model",
			"byteLength": 1654848,
			"byteOffset": 194688,
			"target": 34962
		},
		"vec4BufferView": {
			"buffer": "model",
			"byteLength": 1103232,
			"byteOffset": 1849536,
			"target": 34962
		}
	},
	"meshes": {
		"mesh_m0-PolyPaper21_-962796": {
			"name": "mesh_m0-PolyPaper21_-962796",
			"primitives": [
				{
					"attributes": {
						"POSITION": "accessor_position_m0-PolyPaper21_-962796",
						"NORMAL": "accessor_normal_m0-PolyPaper21_-962796",
						"COLOR": "accessor_color_m0-PolyPaper21_-962796"
					},
					"indices": "accessor_indices_0_m0-PolyPaper21_-962796",
					"material": "material_mat21",
					"mode": 4
				}
			]
		},
		"mesh_m1-PolyPaper8_-962802": {
			"name": "mesh_m1-PolyPaper8_-962802",
			"primitives": [
				{
					"attributes": {
						"POSITION": "accessor_position_m1-PolyPaper8_-962802",
						"NORMAL": "accessor_normal_m1-PolyPaper8_-962802",
						"COLOR": "accessor_color_m1-PolyPaper8_-962802"
					},
					"indices": "accessor_indices_0_m1-PolyPaper8_-962802",
					"material": "material_mat8",
					"mode": 4
				}
			]
		},
		"mesh_m2-PolyPaper8_-962808": {
			"name": "mesh_m2-PolyPaper8_-962808",
			"primitives": [
				{
					"attributes": {
						"POSITION": "accessor_position_m2-PolyPaper8_-962808",
						"NORMAL": "accessor_normal_m2-PolyPaper8_-962808",
						"COLOR": "accessor_color_m2-PolyPaper8_-962808"
					},
					"indices": "accessor_indices_0_m2-PolyPaper8_-962808",
					"material": "material_mat8",
					"mode": 4
				}
			]
		},
		"mesh_m3-PolyPaper8_-962814": {
			"name": "mesh_m3-PolyPaper8_-962814",
			"primitives": [
				{
					"attributes": {
						"POSITION": "accessor_position_m3-PolyPaper8_-962814",
						"NORMAL": "accessor_normal_m3-PolyPaper8_-962814",
						"COLOR": "accessor_color_m3-PolyPaper8_-962814"
					},
					"indices": "accessor_indices_0_m3-PolyPaper8_-962814",
					"material": "material_mat8",
					"mode": 4
				}
			]
		}
	},
	"shaders": {
		"vertex_mat21": {
			"type": 35633,
			"uri": "https://vr.google.com/shaders/w/vs.glsl"
		},
		"fragment_mat21": {
			"type": 35632,
			"uri": "https://vr.google.com/shaders/w/fs.glsl"
		},
		"vertex_mat8": {
			"type": 35633,
			"uri": "https://vr.google.com/shaders/w/vs.glsl"
		},
		"fragment_mat8": {
			"type": 35632,
			"uri": "https://vr.google.com/shaders/w/fs.glsl"
		}
	},
	"programs": {
		"program_mat21": {
			"attributes": [
				"a_position",
				"a_normal",
				"a_color"				
			],
			"vertexShader": "vertex_mat21",
			"fragmentShader": "fragment_mat21"
		},
		"program_mat8": {
			"attributes": [
				"a_position",
				"a_normal",
				"a_color"				
			],
			"vertexShader": "vertex_mat8",
			"fragmentShader": "fragment_mat8"
		}
	},
	"techniques": {
		"technique_mat21": {
			"program": "program_mat21",
			"extras": {"gvrss" : "https://vr.google.com/shaders/w/gvrss/paper.json"},
			"parameters": {
				"position": {
					"type": 35665,
					"semantic": "POSITION"
				},
				"normal": {
					"type": 35665,
					"semantic": "NORMAL"
				},
				"color": {
					"type": 35666,
					"semantic": "COLOR"
				},
				"modelViewMatrix": {
					"type": 35676,
					"semantic": "MODELVIEW"
				},
				"projectionMatrix": {
					"type": 35676,
					"semantic": "PROJECTION"
				},
				"normalMatrix": {
					"type": 35675,
					"semantic": "MODELVIEWINVERSETRANSPOSE"
				},
				"color": {
					"type": 35666
				},
				"roughness": {
					"type": 5126
				},
				"metallic": {
					"type": 5126
				},
				"light0Pos": {
					"type": 35666
				},
				"light0Color": {
					"type": 35666
				},
				"light1Pos": {
					"type": 35666
				},
				"light1Color": {
					"type": 35666
				}				
			},
			"attributes": {
				"a_position": "position",
				"a_normal": "normal",
				"a_color": "color"				
			},
			"uniforms": {
				"u_modelViewMatrix": "modelViewMatrix",
				"u_projectionMatrix": "projectionMatrix",
				"u_normalMatrix": "normalMatrix",
				"u_color": "color",
				"u_roughness": "roughness",
				"u_metallic": "metallic",
				"u_light0Pos": "light0Pos",
				"u_light0Color": "light0Color",
				"u_light1Pos": "light1Pos",
				"u_light1Color": "light1Color"				
			},
			"states": {
				"enable": [
					2929,
					2884
				],
				"functions": {
					"cullFace": [1029]
				}
			}
		},
		"technique_mat8": {
			"program": "program_mat8",
			"extras": {"gvrss" : "https://vr.google.com/shaders/w/gvrss/paper.json"},
			"parameters": {
				"position": {
					"type": 35665,
					"semantic": "POSITION"
				},
				"normal": {
					"type": 35665,
					"semantic": "NORMAL"
				},
				"color": {
					"type": 35666,
					"semantic": "COLOR"
				},
				"modelViewMatrix": {
					"type": 35676,
					"semantic": "MODELVIEW"
				},
				"projectionMatrix": {
					"type": 35676,
					"semantic": "PROJECTION"
				},
				"normalMatrix": {
					"type": 35675,
					"semantic": "MODELVIEWINVERSETRANSPOSE"
				},
				"color": {
					"type": 35666
				},
				"roughness": {
					"type": 5126
				},
				"metallic": {
					"type": 5126
				},
				"light0Pos": {
					"type": 35666
				},
				"light0Color": {
					"type": 35666
				},
				"light1Pos": {
					"type": 35666
				},
				"light1Color": {
					"type": 35666
				}				
			},
			"attributes": {
				"a_position": "position",
				"a_normal": "normal",
				"a_color": "color"				
			},
			"uniforms": {
				"u_modelViewMatrix": "modelViewMatrix",
				"u_projectionMatrix": "projectionMatrix",
				"u_normalMatrix": "normalMatrix",
				"u_color": "color",
				"u_roughness": "roughness",
				"u_metallic": "metallic",
				"u_light0Pos": "light0Pos",
				"u_light0Color": "light0Color",
				"u_light1Pos": "light1Pos",
				"u_light1Color": "light1Color"				
			},
			"states": {
				"enable": [
					2929,
					2884
				],
				"functions": {
					"cullFace": [1029]
				}
			}
		}
	},
	"materials": {
		"material_mat21": {
			"technique": "technique_mat21",
			"values": {
				"color": [1, 1, 1, 1],
				"roughness": 0.72,
				"metallic": 0,
				"light0Pos": [-0.02, 4.11, -0.54, 0],
				"light0Color": [0.8, 0.7700471, 0.6882353, 0],
				"light1Pos": [0.02, -4.11, 0.54, 0],
				"light1Color": [0.3676471, 0.3692089, 0.4, 0]				
			},
			"name": "material_mat21"
		},
		"material_mat8": {
			"technique": "technique_mat8",
			"values": {
				"color": [0.9568627, 0.2627451, 0.2117647, 1],
				"roughness": 0.72,
				"metallic": 0,
				"light0Pos": [-0.02, 4.11, -0.54, 0],
				"light0Color": [0.8, 0.7700471, 0.6882353, 0],
				"light1Pos": [0.02, -4.11, 0.54, 0],
				"light1Color": [0.3676471, 0.3692089, 0.4, 0]				
			},
			"name": "material_mat8"
		}
	},
	"nodes": {
		"node_MeshObject1620777984-PolyPaper21": {
			"name": "node_MeshObject1620777984-PolyPaper21",
			"meshes": [
				"mesh_m0-PolyPaper21_-962796"
			],
			"matrix": [1, 0, 0, 0, 0, 1, 0, 0, 0, 0, 1, 0, 0, 0, 0, 1]
		},
		"node_MeshObject1580643328-PolyPaper8": {
			"name": "node_MeshObject1580643328-PolyPaper8",
			"meshes": [
				"mesh_m1-PolyPaper8_-962802"
			],
			"matrix": [1, 0, 0, 0, 0, 1, 0, 0, 0, 0, 1, 0, 0, 0, 0, 1]
		},
		"node_MeshObject-2142244864-PolyPaper8": {
			"name": "node_MeshObject-2142244864-PolyPaper8",
			"meshes": [
				"mesh_m2-PolyPaper8_-962808"
			],
			"matrix": [1, 0, 0, 0, 0, 1, 0, 0, 0, 0, 1, 0, 0, 0, 0, 1]
		},
		"node_MeshObject-1570165760-PolyPaper8": {
			"name": "node_MeshObject-1570165760-PolyPaper8",
			"meshes": [
				"mesh_m3-PolyPaper8_-962814"
			],
			"matrix": [1, 0, 0, 0, 0, 1, 0, 0, 0, 0, 1, 0, 0, 0, 0, 1]
		}
	},
	"scene": "defaultScene",
	"scenes": {
		"defaultScene": {
			"nodes": [
				"node_MeshObject1620777984-PolyPaper21",
				"node_MeshObject1580643328-PolyPaper8",
				"node_MeshObject-2142244864-PolyPaper8",
				"node_MeshObject-1570165760-PolyPaper8"
			],
			"extras": {

			}
		}
	}
}