{
	"asset": {
		"generator": "Tilt Brush 15.2.4484bbdd5",
		"version": "1.1",
		"copyright": "Unknown."
	},
	"buffers": {
		"sketch": {
			"byteLength": 555784,
			"type": "arraybuffer",
			"uri": "sketch.bin"
		}
	},
	"accessors": {
		"accessor_position_Wire_4391385a-cf83-4396-9e33-31e4e4930b27_0_0": {
			"bufferView": "vec3BufferView",
			"byteOffset": 0,
			"byteStride": 12,
			"componentType": 5126,
			"count": 1357,
			"max": [ 0.2009681, 1.24158, 0.0899555 ],
			"min": [ -0.1034147, 0.9302198, -0.2104853 ],
			"type": "VEC3"
		 },
		"accessor_normal_Wire_4391385a-cf83-4396-9e33-31e4e4930b27_0_0": {
			"bufferView": "vec3BufferView",
			"byteOffset": 16284,
			"byteStride": 12,
			"componentType": 5126,
			"count": 1357,
			"max": [ 0.9954889, 0.9996706, 0.9992867 ],
			"min": [ -0.9954889, -0.9996706, -0.9992867 ],
			"type": "VEC3"
		 },
		"accessor_color_Wire_4391385a-cf83-4396-9e33-31e4e4930b27_0_0": {
			"bufferView": "vec4BufferView",
			"byteOffset": 0,
			"byteStride": 16,
			"componentType": 5126,
			"count": 1357,
			"max": [ 0.9294118, 0.6, 0.6, 1 ],
			"min": [ 0.9294118, 0.6, 0.6, 1 ],
			"type": "VEC4"
		 },
		"accessor_tangent_Wire_4391385a-cf83-4396-9e33-31e4e4930b27_0_0": {
			"bufferView": "vec4BufferView",
			"byteOffset": 21712,
			"byteStride": 16,
			"componentType": 5126,
			"count": 1357,
			"max": [ 0.9959792, 0.9869732, 0.9754655, 1 ],
			"min": [ -0.9958504, -0.9772811, -0.9754654, 1 ],
			"type": "VEC4"
		 },
		"accessor_uv0_Wire_4391385a-cf83-4396-9e33-31e4e4930b27_0_0": {
			"bufferView": "vec2BufferView",
			"byteOffset": 0,
			"byteStride": 8,
			"componentType": 5126,
			"count": 1357,
			"max": [ 1.875248, 1 ],
			"min": [ 0.025595, 0 ],
			"type": "VEC2"
		 },
		"accessor_indices_0_Wire_4391385a-cf83-4396-9e33-31e4e4930b27_0_0": {
			"bufferView": "ushortBufferView",
			"byteOffset": 0,
			"byteStride": 0,
			"componentType": 5123,
			"count": 7152,
			"max": [ 1356 ],
			"min": [ 0 ],
			"type": "SCALAR"
		 },
		"accessor_position_Embers_02ffb866-7fb2-4d15-b761-1012cefb1360_0_0": {
			"bufferView": "vec3BufferView",
			"byteOffset": 32568,
			"byteStride": 12,
			"componentType": 5126,
			"count": 408,
			"max": [ 0.1443233, 1.449742, 0.08273737 ],
			"min": [ -0.06700566, 1.07894, -0.1316636 ],
			"type": "VEC3"
		 },
		"accessor_normal_Embers_02ffb866-7fb2-4d15-b761-1012cefb1360_0_0": {
			"bufferView": "vec3BufferView",
			"byteOffset": 37464,
			"byteStride": 12,
			"componentType": 5126,
			"count": 408,
			"max": [ 0.1426195, 1.449553, 0.07362571 ],
			"min": [ -0.06002242, 1.085085, -0.1223687 ],
			"type": "VEC3"
		 },
		"accessor_color_Embers_02ffb866-7fb2-4d15-b761-1012cefb1360_0_0": {
			"bufferView": "vec4BufferView",
			"byteOffset": 43424,
			"byteStride": 16,
			"componentType": 5126,
			"count": 408,
			"max": [ 0.9294118, 0.6, 0.6, 0.9921569 ],
			"min": [ 0.9294118, 0.6, 0.6, 0 ],
			"type": "VEC4"
		 },
		"accessor_vertexId_Embers_02ffb866-7fb2-4d15-b761-1012cefb1360_0_0": {
			"bufferView": "floatBufferView",
			"byteOffset": 0,
			"byteStride": 0,
			"componentType": 5126,
			"count": 408,
			"max": [ 407 ],
			"min": [ 0 ],
			"type": "SCALAR"
		 },
		"accessor_uv0_Embers_02ffb866-7fb2-4d15-b761-1012cefb1360_0_0": {
			"bufferView": "vec4BufferView",
			"byteOffset": 49952,
			"byteStride": 16,
			"componentType": 5126,
			"count": 408,
			"max": [ 1, 1, 0, 634.7506 ],
			"min": [ 0, 0, 0, 625.3943 ],
			"type": "VEC4"
		 },
		"accessor_uv1_Embers_02ffb866-7fb2-4d15-b761-1012cefb1360_0_0": {
			"bufferView": "vec4BufferView",
			"byteOffset": 56480,
			"byteStride": 16,
			"componentType": 5126,
			"count": 408,
			"max": [ 0.1426195, 1.449553, 0.07362571, 407 ],
			"min": [ -0.06002242, 1.085085, -0.1223687, 0 ],
			"type": "VEC4"
		 },
		"accessor_indices_0_Embers_02ffb866-7fb2-4d15-b761-1012cefb1360_0_0": {
			"bufferView": "ushortBufferView",
			"byteOffset": 14304,
			"byteStride": 0,
			"componentType": 5123,
			"count": 612,
			"max": [ 407 ],
			"min": [ 0 ],
			"type": "SCALAR"
		 },
		"accessor_position_NeonPulse_b2ffef01-eaaa-4ab5-aa64-95a2c4f5dbc6_0_0": {
			"bufferView": "vec3BufferView",
			"byteOffset": 42360,
			"byteStride": 12,
			"componentType": 5126,
			"count": 5760,
			"max": [ 0.2654173, 1.225471, 0.1551441 ],
			"min": [ -0.1328229, 0.9517137, -0.261613 ],
			"type": "VEC3"
		 },
		"accessor_normal_NeonPulse_b2ffef01-eaaa-4ab5-aa64-95a2c4f5dbc6_0_0": {
			"bufferView": "vec3BufferView",
			"byteOffset": 111480,
			"byteStride": 12,
			"componentType": 5126,
			"count": 5760,
			"max": [ 0.9998838, 0.9995437, 0.9977949 ],
			"min": [ -0.9998838, -0.9995437, -0.9977949 ],
			"type": "VEC3"
		 },
		"accessor_color_NeonPulse_b2ffef01-eaaa-4ab5-aa64-95a2c4f5dbc6_0_0": {
			"bufferView": "vec4BufferView",
			"byteOffset": 63008,
			"byteStride": 16,
			"componentType": 5126,
			"count": 5760,
			"max": [ 0.9882353, 0.9333333, 0.9372549, 1 ],
			"min": [ 0.9882353, 0.9333333, 0.9372549, 1 ],
			"type": "VEC4"
		 },
		"accessor_tangent_NeonPulse_b2ffef01-eaaa-4ab5-aa64-95a2c4f5dbc6_0_0": {
			"bufferView": "vec4BufferView",
			"byteOffset": 155168,
			"byteStride": 16,
			"componentType": 5126,
			"count": 5760,
			"max": [ 0.9961656, 0.9987367, 0.9995844, 1 ],
			"min": [ -0.9961656, -0.9987367, -0.9982013, 1 ],
			"type": "VEC4"
		 },
		"accessor_uv0_NeonPulse_b2ffef01-eaaa-4ab5-aa64-95a2c4f5dbc6_0_0": {
			"bufferView": "vec2BufferView",
			"byteOffset": 10856,
			"byteStride": 8,
			"componentType": 5126,
			"count": 5760,
			"max": [ 0.9823999, 1 ],
			"min": [ 0.03614439, 0 ],
			"type": "VEC2"
		 },
		"accessor_indices_0_NeonPulse_b2ffef01-eaaa-4ab5-aa64-95a2c4f5dbc6_0_0": {
			"bufferView": "ushortBufferView",
			"byteOffset": 15528,
			"byteStride": 0,
			"componentType": 5123,
			"count": 26880,
			"max": [ 5759 ],
			"min": [ 0 ],
			"type": "SCALAR"
		 }
	},
	"bufferViews": {
		"ushortBufferView": {
			"buffer": "sketch",
			"byteLength": 69288,
			"byteOffset": 0,
			"target": 34963
		},
		"floatBufferView": {
			"buffer": "sketch",
			"byteLength": 1632,
			"byteOffset": 69288,
			"target": 34962
		},
		"vec2BufferView": {
			"buffer": "sketch",
			"byteLength": 56936,
			"byteOffset": 70920,
			"target": 34962
		},
		"vec3BufferView": {
			"buffer": "sketch",
			"byteLength": 180600,
			"byteOffset": 127856,
			"target": 34962
		},
		"vec4BufferView": {
			"buffer": "sketch",
			"byteLength": 247328,
			"byteOffset": 308456,
			"target": 34962
		}
	},
	"meshes": {
		"mesh_Wire_4391385a-cf83-4396-9e33-31e4e4930b27_0_0": {
			"name": "mesh_Wire_4391385a-cf83-4396-9e33-31e4e4930b27_0_0",
			"primitives": [
				{
					"attributes": {
						"POSITION": "accessor_position_Wire_4391385a-cf83-4396-9e33-31e4e4930b27_0_0",
						"NORMAL": "accessor_normal_Wire_4391385a-cf83-4396-9e33-31e4e4930b27_0_0",
						"COLOR": "accessor_color_Wire_4391385a-cf83-4396-9e33-31e4e4930b27_0_0",
						"TANGENT": "accessor_tangent_Wire_4391385a-cf83-4396-9e33-31e4e4930b27_0_0",
						"TEXCOORD_0": "accessor_uv0_Wire_4391385a-cf83-4396-9e33-31e4e4930b27_0_0"
					},
					"indices": "accessor_indices_0_Wire_4391385a-cf83-4396-9e33-31e4e4930b27_0_0",
					"material": "material_4391385a-cf83-4396-9e33-31e4e4930b27",
					"mode": 4
				}
			]
		},
		"mesh_Embers_02ffb866-7fb2-4d15-b761-1012cefb1360_0_0": {
			"name": "mesh_Embers_02ffb866-7fb2-4d15-b761-1012cefb1360_0_0",
			"primitives": [
				{
					"attributes": {
						"POSITION": "accessor_position_Embers_02ffb866-7fb2-4d15-b761-1012cefb1360_0_0",
						"NORMAL": "accessor_normal_Embers_02ffb866-7fb2-4d15-b761-1012cefb1360_0_0",
						"COLOR": "accessor_color_Embers_02ffb866-7fb2-4d15-b761-1012cefb1360_0_0",
						"VERTEXID": "accessor_vertexId_Embers_02ffb866-7fb2-4d15-b761-1012cefb1360_0_0",
						"TEXCOORD_0": "accessor_uv0_Embers_02ffb866-7fb2-4d15-b761-1012cefb1360_0_0",
						"TEXCOORD_1": "accessor_uv1_Embers_02ffb866-7fb2-4d15-b761-1012cefb1360_0_0"
					},
					"indices": "accessor_indices_0_Embers_02ffb866-7fb2-4d15-b761-1012cefb1360_0_0",
					"material": "material_02ffb866-7fb2-4d15-b761-1012cefb1360",
					"mode": 4
				}
			]
		},
		"mesh_NeonPulse_b2ffef01-eaaa-4ab5-aa64-95a2c4f5dbc6_0_0": {
			"name": "mesh_NeonPulse_b2ffef01-eaaa-4ab5-aa64-95a2c4f5dbc6_0_0",
			"primitives": [
				{
					"attributes": {
						"POSITION": "accessor_position_NeonPulse_b2ffef01-eaaa-4ab5-aa64-95a2c4f5dbc6_0_0",
						"NORMAL": "accessor_normal_NeonPulse_b2ffef01-eaaa-4ab5-aa64-95a2c4f5dbc6_0_0",
						"COLOR": "accessor_color_NeonPulse_b2ffef01-eaaa-4ab5-aa64-95a2c4f5dbc6_0_0",
						"TANGENT": "accessor_tangent_NeonPulse_b2ffef01-eaaa-4ab5-aa64-95a2c4f5dbc6_0_0",
						"TEXCOORD_0": "accessor_uv0_NeonPulse_b2ffef01-eaaa-4ab5-aa64-95a2c4f5dbc6_0_0"
					},
					"indices": "accessor_indices_0_NeonPulse_b2ffef01-eaaa-4ab5-aa64-95a2c4f5dbc6_0_0",
					"material": "material_b2ffef01-eaaa-4ab5-aa64-95a2c4f5dbc6",
					"mode": 4
				}
			]
		}
	},
	"shaders": {
		"vertex_4391385a-cf83-4396-9e33-31e4e4930b27": {
			"type": 35633,
			"uri": "https://www.tiltbrush.com/shaders/brushes/Wire-4391385a-cf83-4396-9e33-31e4e4930b27/Wire-4391385a-cf83-4396-9e33-31e4e4930b27-v10.0-vertex.glsl"
		},
		"fragment_4391385a-cf83-4396-9e33-31e4e4930b27": {
			"type": 35632,
			"uri": "https://www.tiltbrush.com/shaders/brushes/Wire-4391385a-cf83-4396-9e33-31e4e4930b27/Wire-4391385a-cf83-4396-9e33-31e4e4930b27-v10.0-fragment.glsl"
		},
		"vertex_02ffb866-7fb2-4d15-b761-1012cefb1360": {
			"type": 35633,
			"uri": "https://www.tiltbrush.com/shaders/brushes/Embers-02ffb866-7fb2-4d15-b761-1012cefb1360/Embers-02ffb866-7fb2-4d15-b761-1012cefb1360-v10.0-vertex.glsl"
		},
		"fragment_02ffb866-7fb2-4d15-b761-1012cefb1360": {
			"type": 35632,
			"uri": "https://www.tiltbrush.com/shaders/brushes/Embers-02ffb866-7fb2-4d15-b761-1012cefb1360/Embers-02ffb866-7fb2-4d15-b761-1012cefb1360-v10.0-fragment.glsl"
		},
		"vertex_b2ffef01-eaaa-4ab5-aa64-95a2c4f5dbc6": {
			"type": 35633,
			"uri": "https://www.tiltbrush.com/shaders/brushes/NeonPulse-b2ffef01-eaaa-4ab5-aa64-95a2c4f5dbc6/NeonPulse-b2ffef01-eaaa-4ab5-aa64-95a2c4f5dbc6-v10.0-vertex.glsl"
		},
		"fragment_b2ffef01-eaaa-4ab5-aa64-95a2c4f5dbc6": {
			"type": 35632,
			"uri": "https://www.tiltbrush.com/shaders/brushes/NeonPulse-b2ffef01-eaaa-4ab5-aa64-95a2c4f5dbc6/NeonPulse-b2ffef01-eaaa-4ab5-aa64-95a2c4f5dbc6-v10.0-fragment.glsl"
		}
	},
	"programs": {
		"program_4391385a-cf83-4396-9e33-31e4e4930b27": {
			"attributes": [
				"a_position",
				"a_normal",
				"a_color",
				"a_tangent",
				"a_texcoord0"				
			],
			"vertexShader": "vertex_4391385a-cf83-4396-9e33-31e4e4930b27",
			"fragmentShader": "fragment_4391385a-cf83-4396-9e33-31e4e4930b27"
		},
		"program_02ffb866-7fb2-4d15-b761-1012cefb1360": {
			"attributes": [
				"a_position",
				"a_normal",
				"a_color",
				"a_vertexId",
				"a_texcoord0",
				"a_texcoord1"				
			],
			"vertexShader": "vertex_02ffb866-7fb2-4d15-b761-1012cefb1360",
			"fragmentShader": "fragment_02ffb866-7fb2-4d15-b761-1012cefb1360"
		},
		"program_b2ffef01-eaaa-4ab5-aa64-95a2c4f5dbc6": {
			"attributes": [
				"a_position",
				"a_normal",
				"a_color",
				"a_tangent",
				"a_texcoord0"				
			],
			"vertexShader": "vertex_b2ffef01-eaaa-4ab5-aa64-95a2c4f5dbc6",
			"fragmentShader": "fragment_b2ffef01-eaaa-4ab5-aa64-95a2c4f5dbc6"
		}
	},
	"techniques": {
		"technique_4391385a-cf83-4396-9e33-31e4e4930b27": {
			"program": "program_4391385a-cf83-4396-9e33-31e4e4930b27",
			"parameters": {
				"position": {
					"type": 35665,
					"semantic": "POSITION"
				},
				"normal": {
					"type": 35665,
					"semantic": "NORMAL"
				},
				"color": {
					"type": 35666,
					"semantic": "COLOR"
				},
				"tangent": {
					"type": 35666,
					"semantic": "TANGENT"
				},
				"texcoord0": {
					"type": 35664,
					"semantic": "TEXCOORD_0"
				},
				"modelViewMatrix": {
					"type": 35676,
					"semantic": "MODELVIEW"
				},
				"projectionMatrix": {
					"type": 35676,
					"semantic": "PROJECTION"
				},
				"normalMatrix": {
					"type": 35675,
					"semantic": "MODELVIEWINVERSETRANSPOSE"
				},
				"SceneLight_0_matrix": {
					"type": 35676,
					"semantic": "MODELVIEW",
					"node": "node_SceneLight_0_-2792"
				},
				"SceneLight_0_color": {
					"type": 35666,
					"node": "node_SceneLight_0_-2792"
				},
				"SceneLight_1_matrix": {
					"type": 35676,
					"semantic": "MODELVIEW",
					"node": "node_SceneLight_1_-2798"
				},
				"SceneLight_1_color": {
					"type": 35666,
					"node": "node_SceneLight_1_-2798"
				},
				"ambient_light_color": {
					"type": 35666
				},
				"Cutoff": {
					"type": 5126
				}				
			},
			"attributes": {
				"a_position": "position",
				"a_normal": "normal",
				"a_color": "color",
				"a_tangent": "tangent",
				"a_texcoord0": "texcoord0"				
			},
			"uniforms": {
				"u_modelViewMatrix": "modelViewMatrix",
				"u_projectionMatrix": "projectionMatrix",
				"u_normalMatrix": "normalMatrix",
				"u_SceneLight_0_matrix": "SceneLight_0_matrix",
				"u_SceneLight_0_color": "SceneLight_0_color",
				"u_SceneLight_1_matrix": "SceneLight_1_matrix",
				"u_SceneLight_1_color": "SceneLight_1_color",
				"u_ambient_light_color": "ambient_light_color",
				"u_Cutoff": "Cutoff"				
			},
			"states": {
				"enable": [
					2929
				],
				"functions": {
					"depthMask": [true]
				}
			}
		},
		"technique_02ffb866-7fb2-4d15-b761-1012cefb1360": {
			"program": "program_02ffb866-7fb2-4d15-b761-1012cefb1360",
			"parameters": {
				"position": {
					"type": 35665,
					"semantic": "POSITION"
				},
				"normal": {
					"type": 35665,
					"semantic": "NORMAL"
				},
				"color": {
					"type": 35666,
					"semantic": "COLOR"
				},
				"vertexId": {
					"type": 5126
				},
				"texcoord0": {
					"type": 35666,
					"semantic": "TEXCOORD_0"
				},
				"texcoord1": {
					"type": 35666,
					"semantic": "TEXCOORD_1"
				},
				"modelViewMatrix": {
					"type": 35676,
					"semantic": "MODELVIEW"
				},
				"projectionMatrix": {
					"type": 35676,
					"semantic": "PROJECTION"
				},
				"normalMatrix": {
					"type": 35675,
					"semantic": "MODELVIEWINVERSETRANSPOSE"
				},
				"SceneLight_0_matrix": {
					"type": 35676,
					"semantic": "MODELVIEW",
					"node": "node_SceneLight_0_-2792"
				},
				"SceneLight_0_color": {
					"type": 35666,
					"node": "node_SceneLight_0_-2792"
				},
				"SceneLight_1_matrix": {
					"type": 35676,
					"semantic": "MODELVIEW",
					"node": "node_SceneLight_1_-2798"
				},
				"SceneLight_1_color": {
					"type": 35666,
					"node": "node_SceneLight_1_-2798"
				},
				"ambient_light_color": {
					"type": 35666
				},
				"ScrollRate": {
					"type": 5126
				},
				"ScrollJitterIntensity": {
					"type": 5126
				},
				"ScrollJitterFrequency": {
					"type": 5126
				},
				"SpreadRate": {
					"type": 5126
				},
				"TintColor": {
					"type": 35666
				},
				"ScrollDistance": {
					"type": 35666
				},
				"MainTex_TexelSize": {
					"type": 35666
				},
				"MainTex": {
					"type": 35678
				}				
			},
			"attributes": {
				"a_position": "position",
				"a_normal": "normal",
				"a_color": "color",
				"a_vertexId": "vertexId",
				"a_texcoord0": "texcoord0",
				"a_texcoord1": "texcoord1"				
			},
			"uniforms": {
				"u_modelViewMatrix": "modelViewMatrix",
				"u_projectionMatrix": "projectionMatrix",
				"u_normalMatrix": "normalMatrix",
				"u_SceneLight_0_matrix": "SceneLight_0_matrix",
				"u_SceneLight_0_color": "SceneLight_0_color",
				"u_SceneLight_1_matrix": "SceneLight_1_matrix",
				"u_SceneLight_1_color": "SceneLight_1_color",
				"u_ambient_light_color": "ambient_light_color",
				"u_ScrollRate": "ScrollRate",
				"u_ScrollJitterIntensity": "ScrollJitterIntensity",
				"u_ScrollJitterFrequency": "ScrollJitterFrequency",
				"u_SpreadRate": "SpreadRate",
				"u_TintColor": "TintColor",
				"u_ScrollDistance": "ScrollDistance",
				"u_MainTex_TexelSize": "MainTex_TexelSize",
				"u_MainTex": "MainTex"				
			},
			"states": {
				"enable": [
					2929,
					3042
				],
				"functions": {
					"blendFuncSeparate": [1, 1, 1, 1],
					"depthMask": [false]
				}
			}
		},
		"technique_b2ffef01-eaaa-4ab5-aa64-95a2c4f5dbc6": {
			"program": "program_b2ffef01-eaaa-4ab5-aa64-95a2c4f5dbc6",
			"parameters": {
				"position": {
					"type": 35665,
					"semantic": "POSITION"
				},
				"normal": {
					"type": 35665,
					"semantic": "NORMAL"
				},
				"color": {
					"type": 35666,
					"semantic": "COLOR"
				},
				"tangent": {
					"type": 35666,
					"semantic": "TANGENT"
				},
				"texcoord0": {
					"type": 35664,
					"semantic": "TEXCOORD_0"
				},
				"modelViewMatrix": {
					"type": 35676,
					"semantic": "MODELVIEW"
				},
				"projectionMatrix": {
					"type": 35676,
					"semantic": "PROJECTION"
				},
				"normalMatrix": {
					"type": 35675,
					"semantic": "MODELVIEWINVERSETRANSPOSE"
				},
				"SceneLight_0_matrix": {
					"type": 35676,
					"semantic": "MODELVIEW",
					"node": "node_SceneLight_0_-2792"
				},
				"SceneLight_0_color": {
					"type": 35666,
					"node": "node_SceneLight_0_-2792"
				},
				"SceneLight_1_matrix": {
					"type": 35676,
					"semantic": "MODELVIEW",
					"node": "node_SceneLight_1_-2798"
				},
				"SceneLight_1_color": {
					"type": 35666,
					"node": "node_SceneLight_1_-2798"
				},
				"ambient_light_color": {
					"type": 35666
				},
				"EmissionGain": {
					"type": 5126
				}				
			},
			"attributes": {
				"a_position": "position",
				"a_normal": "normal",
				"a_color": "color",
				"a_tangent": "tangent",
				"a_texcoord0": "texcoord0"				
			},
			"uniforms": {
				"u_modelViewMatrix": "modelViewMatrix",
				"u_projectionMatrix": "projectionMatrix",
				"u_normalMatrix": "normalMatrix",
				"u_SceneLight_0_matrix": "SceneLight_0_matrix",
				"u_SceneLight_0_color": "SceneLight_0_color",
				"u_SceneLight_1_matrix": "SceneLight_1_matrix",
				"u_SceneLight_1_color": "SceneLight_1_color",
				"u_ambient_light_color": "ambient_light_color",
				"u_EmissionGain": "EmissionGain"				
			},
			"states": {
				"enable": [
					2929,
					3042
				],
				"functions": {
					"blendFuncSeparate": [1, 1, 1, 1],
					"depthMask": [false]
				}
			}
		}
	},
	"samplers": {
		"sampler_LINEAR_LINEAR_REPEAT": {
			"magFilter": 9729,
			"minFilter": 9987,
			"wrapS": 10497,
			"wrapT": 10497
		}
	},
	"textures": {
		"texture_02ffb866-7fb2-4d15-b761-1012cefb1360_MainTex": {
			"format": 6408,
			"internalFormat": 6408,
			"sampler": "sampler_LINEAR_LINEAR_REPEAT",
			"source": "image_02ffb866-7fb2-4d15-b761-1012cefb1360_MainTex",
			"target": 3553,
			"type": 5121
		}
	},
	"images": {
		"image_02ffb866-7fb2-4d15-b761-1012cefb1360_MainTex": {
			"uri": "https://www.tiltbrush.com/shaders/brushes/Embers-02ffb866-7fb2-4d15-b761-1012cefb1360/Embers-02ffb866-7fb2-4d15-b761-1012cefb1360-v10.0-MainTex.png"
		}
	},
	"materials": {
		"material_4391385a-cf83-4396-9e33-31e4e4930b27": {
			"technique": "technique_4391385a-cf83-4396-9e33-31e4e4930b27",
			"values": {
				"SceneLight_0_color": [0.7780392, 0.8156863, 0.9913726, 1],
				"SceneLight_1_color": [0.4282353, 0.4211765, 0.3458824, 1],
				"ambient_light_color": [0.3921569, 0.3921569, 0.3921569, 1],
				"Cutoff": 0.067				
			},
			"name": "material_4391385a-cf83-4396-9e33-31e4e4930b27"
		},
		"material_02ffb866-7fb2-4d15-b761-1012cefb1360": {
			"technique": "technique_02ffb866-7fb2-4d15-b761-1012cefb1360",
			"values": {
				"SceneLight_0_color": [0.7780392, 0.8156863, 0.9913726, 1],
				"SceneLight_1_color": [0.4282353, 0.4211765, 0.3458824, 1],
				"ambient_light_color": [0.3921569, 0.3921569, 0.3921569, 1],
				"ScrollRate": 0.6,
				"ScrollJitterIntensity": 0.03,
				"ScrollJitterFrequency": 5,
				"SpreadRate": 1.539,
				"TintColor": [1, 1, 1, 1],
				"ScrollDistance": [0.2, 0.6, 0, 0],
				"MainTex_TexelSize": [0.0078125, 0.0078125, 128, 128],
				"MainTex": "texture_02ffb866-7fb2-4d15-b761-1012cefb1360_MainTex"				
			},
			"name": "material_02ffb866-7fb2-4d15-b761-1012cefb1360"
		},
		"material_b2ffef01-eaaa-4ab5-aa64-95a2c4f5dbc6": {
			"technique": "technique_b2ffef01-eaaa-4ab5-aa64-95a2c4f5dbc6",
			"values": {
				"SceneLight_0_color": [0.7780392, 0.8156863, 0.9913726, 1],
				"SceneLight_1_color": [0.4282353, 0.4211765, 0.3458824, 1],
				"ambient_light_color": [0.3921569, 0.3921569, 0.3921569, 1],
				"EmissionGain": 0.5				
			},
			"name": "material_b2ffef01-eaaa-4ab5-aa64-95a2c4f5dbc6"
		}
	},
	"nodes": {
		"node_Wire_4391385a-cf83-4396-9e33-31e4e4930b27_0_0": {
			"name": "node_Wire_4391385a-cf83-4396-9e33-31e4e4930b27_0_0",
			"meshes": [
				"mesh_Wire_4391385a-cf83-4396-9e33-31e4e4930b27_0_0"
			],
			"matrix": [1, 0, 0, 0, 0, 1, 0, 0, 0, 0, 1, 0, 0, 0, 0, 1]
		},
		"node_SceneLight_0_-2792": {
			"name": "node_SceneLight_0_-2792",
			"light": "SceneLight_0",
			"matrix": [0.898794, 0.2191856, -0.3796406, 0, -0.4383712, 0.449397, -0.7783785, 0, -1.490116E-08, 0.8660254, 0.4999999, 0, -0.2095192, -0.9196477, 0.2316133, 1]
		},
		"node_SceneLight_1_-2798": {
			"name": "node_SceneLight_1_-2798",
			"light": "SceneLight_1",
			"matrix": [0.7660444, -0.4924039, -0.4131759, 0, -0.6427876, -0.5868242, -0.4924039, 0, 8.940697E-08, 0.6427876, -0.7660446, 0, -0.1213944, -1.007772, 0.4078629, 1]
		},
		"node_Embers_02ffb866-7fb2-4d15-b761-1012cefb1360_0_0": {
			"name": "node_Embers_02ffb866-7fb2-4d15-b761-1012cefb1360_0_0",
			"meshes": [
				"mesh_Embers_02ffb866-7fb2-4d15-b761-1012cefb1360_0_0"
			],
			"matrix": [1, 0, 0, 0, 0, 1, 0, 0, 0, 0, 1, 0, 0, 0, 0, 1]
		},
		"node_NeonPulse_b2ffef01-eaaa-4ab5-aa64-95a2c4f5dbc6_0_0": {
			"name": "node_NeonPulse_b2ffef01-eaaa-4ab5-aa64-95a2c4f5dbc6_0_0",
			"meshes": [
				"mesh_NeonPulse_b2ffef01-eaaa-4ab5-aa64-95a2c4f5dbc6_0_0"
			],
			"matrix": [1, 0, 0, 0, 0, 1, 0, 0, 0, 0, 1, 0, 0, 0, 0, 1]
		}
	},
	"scene": "defaultScene",
	"scenes": {
		"defaultScene": {
			"nodes": [
				"node_Wire_4391385a-cf83-4396-9e33-31e4e4930b27_0_0",
				"node_SceneLight_0_-2792",
				"node_SceneLight_1_-2798",
				"node_Embers_02ffb866-7fb2-4d15-b761-1012cefb1360_0_0",
				"node_NeonPulse_b2ffef01-eaaa-4ab5-aa64-95a2c4f5dbc6_0_0"
			],
			"extras": {
				"TB_EnvironmentGuid": "9b89b0a4-c41e-4b78-82a1-22f10a238357",
				"TB_Environment": "White",
				"TB_SkyColorA": "0.7843137, 0.7843137, 0.7843137",
				"TB_SkyColorB": "0.7843137, 0.7843137, 0.7843137",
				"TB_SkyGradientDirection": "0, 1, 0",
				"TB_FogColor": "1, 1, 1",
				"TB_FogDensity": "0",
				"TB_SkyColorHorizon": "0.7843137, 0.7843137, 0.7843137",
				"TB_SkyColorZenith": "0.7843137, 0.7843137, 0.7843137"
			}
		}
	}
}