{
	"asset": {
		"generator": "Tilt Brush 15.2.4484bbdd5",
		"version": "1.1",
		"copyright": "Unknown."
	},
	"buffers": {
		"sketch": {
			"byteLength": 932288,
			"type": "arraybuffer",
			"uri": "sketch.bin"
		}
	},
	"accessors": {
		"accessor_position_Wire_4391385a-cf83-4396-9e33-31e4e4930b27_0_0": {
			"bufferView": "vec3BufferView",
			"byteOffset": 0,
			"byteStride": 12,
			"componentType": 5126,
			"count": 12563,
			"max": [ 0.2363317, 6.605616, 10.12148 ],
			"min": [ -10.43875, -1.392777, -0.4066238 ],
			"type": "VEC3"
		 },
		"accessor_normal_Wire_4391385a-cf83-4396-9e33-31e4e4930b27_0_0": {
			"bufferView": "vec3BufferView",
			"byteOffset": 150756,
			"byteStride": 12,
			"componentType": 5126,
			"count": 12563,
			"max": [ 0.9999827, 0.9997684, 0.9999859 ],
			"min": [ -0.9999826, -0.9997684, -0.9999859 ],
			"type": "VEC3"
		 },
		"accessor_color_Wire_4391385a-cf83-4396-9e33-31e4e4930b27_0_0": {
			"bufferView": "vec4BufferView",
			"byteOffset": 0,
			"byteStride": 16,
			"componentType": 5126,
			"count": 12563,
			"max": [ 0.8666667, 0.6039216, 0.6078432, 1 ],
			"min": [ 0.1960784, 0.1137255, 0.05098039, 1 ],
			"type": "VEC4"
		 },
		"accessor_tangent_Wire_4391385a-cf83-4396-9e33-31e4e4930b27_0_0": {
			"bufferView": "vec4BufferView",
			"byteOffset": 201008,
			"byteStride": 16,
			"componentType": 5126,
			"count": 12563,
			"max": [ 0.9962665, 0.9998848, 0.9976555, 1 ],
			"min": [ -0.9962664, -0.9999902, -0.9981454, 1 ],
			"type": "VEC4"
		 },
		"accessor_uv0_Wire_4391385a-cf83-4396-9e33-31e4e4930b27_0_0": {
			"bufferView": "vec2BufferView",
			"byteOffset": 0,
			"byteStride": 8,
			"componentType": 5126,
			"count": 12563,
			"max": [ 2.472785, 1 ],
			"min": [ -0.01710203, 0 ],
			"type": "VEC2"
		 },
		"accessor_indices_0_Wire_4391385a-cf83-4396-9e33-31e4e4930b27_0_0": {
			"bufferView": "ushortBufferView",
			"byteOffset": 0,
			"byteStride": 0,
			"componentType": 5123,
			"count": 64128,
			"max": [ 12562 ],
			"min": [ 0 ],
			"type": "SCALAR"
		 }
	},
	"bufferViews": {
		"ushortBufferView": {
			"buffer": "sketch",
			"byteLength": 128256,
			"byteOffset": 0,
			"target": 34963
		},
		"vec2BufferView": {
			"buffer": "sketch",
			"byteLength": 100504,
			"byteOffset": 128256,
			"target": 34962
		},
		"vec3BufferView": {
			"buffer": "sketch",
			"byteLength": 301512,
			"byteOffset": 228760,
			"target": 34962
		},
		"vec4BufferView": {
			"buffer": "sketch",
			"byteLength": 402016,
			"byteOffset": 530272,
			"target": 34962
		}
	},
	"meshes": {
		"mesh_Wire_4391385a-cf83-4396-9e33-31e4e4930b27_0_0": {
			"name": "mesh_Wire_4391385a-cf83-4396-9e33-31e4e4930b27_0_0",
			"primitives": [
				{
					"attributes": {
						"POSITION": "accessor_position_Wire_4391385a-cf83-4396-9e33-31e4e4930b27_0_0",
						"NORMAL": "accessor_normal_Wire_4391385a-cf83-4396-9e33-31e4e4930b27_0_0",
						"COLOR": "accessor_color_Wire_4391385a-cf83-4396-9e33-31e4e4930b27_0_0",
						"TANGENT": "accessor_tangent_Wire_4391385a-cf83-4396-9e33-31e4e4930b27_0_0",
						"TEXCOORD_0": "accessor_uv0_Wire_4391385a-cf83-4396-9e33-31e4e4930b27_0_0"
					},
					"indices": "accessor_indices_0_Wire_4391385a-cf83-4396-9e33-31e4e4930b27_0_0",
					"material": "material_4391385a-cf83-4396-9e33-31e4e4930b27",
					"mode": 4
				}
			]
		}
	},
	"shaders": {
		"vertex_4391385a-cf83-4396-9e33-31e4e4930b27": {
			"type": 35633,
			"uri": "https://www.tiltbrush.com/shaders/brushes/Wire-4391385a-cf83-4396-9e33-31e4e4930b27/Wire-4391385a-cf83-4396-9e33-31e4e4930b27-v10.0-vertex.glsl"
		},
		"fragment_4391385a-cf83-4396-9e33-31e4e4930b27": {
			"type": 35632,
			"uri": "https://www.tiltbrush.com/shaders/brushes/Wire-4391385a-cf83-4396-9e33-31e4e4930b27/Wire-4391385a-cf83-4396-9e33-31e4e4930b27-v10.0-fragment.glsl"
		}
	},
	"programs": {
		"program_4391385a-cf83-4396-9e33-31e4e4930b27": {
			"attributes": [
				"a_position",
				"a_normal",
				"a_color",
				"a_tangent",
				"a_texcoord0"				
			],
			"vertexShader": "vertex_4391385a-cf83-4396-9e33-31e4e4930b27",
			"fragmentShader": "fragment_4391385a-cf83-4396-9e33-31e4e4930b27"
		}
	},
	"techniques": {
		"technique_4391385a-cf83-4396-9e33-31e4e4930b27": {
			"program": "program_4391385a-cf83-4396-9e33-31e4e4930b27",
			"parameters": {
				"position": {
					"type": 35665,
					"semantic": "POSITION"
				},
				"normal": {
					"type": 35665,
					"semantic": "NORMAL"
				},
				"color": {
					"type": 35666,
					"semantic": "COLOR"
				},
				"tangent": {
					"type": 35666,
					"semantic": "TANGENT"
				},
				"texcoord0": {
					"type": 35664,
					"semantic": "TEXCOORD_0"
				},
				"modelViewMatrix": {
					"type": 35676,
					"semantic": "MODELVIEW"
				},
				"projectionMatrix": {
					"type": 35676,
					"semantic": "PROJECTION"
				},
				"normalMatrix": {
					"type": 35675,
					"semantic": "MODELVIEWINVERSETRANSPOSE"
				},
				"SceneLight_0_matrix": {
					"type": 35676,
					"semantic": "MODELVIEW",
					"node": "node_SceneLight_0_-2792"
				},
				"SceneLight_0_color": {
					"type": 35666,
					"node": "node_SceneLight_0_-2792"
				},
				"SceneLight_1_matrix": {
					"type": 35676,
					"semantic": "MODELVIEW",
					"node": "node_SceneLight_1_-2798"
				},
				"SceneLight_1_color": {
					"type": 35666,
					"node": "node_SceneLight_1_-2798"
				},
				"ambient_light_color": {
					"type": 35666
				},
				"Cutoff": {
					"type": 5126
				}				
			},
			"attributes": {
				"a_position": "position",
				"a_normal": "normal",
				"a_color": "color",
				"a_tangent": "tangent",
				"a_texcoord0": "texcoord0"				
			},
			"uniforms": {
				"u_modelViewMatrix": "modelViewMatrix",
				"u_projectionMatrix": "projectionMatrix",
				"u_normalMatrix": "normalMatrix",
				"u_SceneLight_0_matrix": "SceneLight_0_matrix",
				"u_SceneLight_0_color": "SceneLight_0_color",
				"u_SceneLight_1_matrix": "SceneLight_1_matrix",
				"u_SceneLight_1_color": "SceneLight_1_color",
				"u_ambient_light_color": "ambient_light_color",
				"u_Cutoff": "Cutoff"				
			},
			"states": {
				"enable": [
					2929
				],
				"functions": {
					"depthMask": [true]
				}
			}
		}
	},
	"materials": {
		"material_4391385a-cf83-4396-9e33-31e4e4930b27": {
			"technique": "technique_4391385a-cf83-4396-9e33-31e4e4930b27",
			"values": {
				"SceneLight_0_color": [0, 0, 0, 1],
				"SceneLight_1_color": [0, 0, 0, 1],
				"ambient_light_color": [1, 1, 1, 1],
				"Cutoff": 0.067				
			},
			"name": "material_4391385a-cf83-4396-9e33-31e4e4930b27"
		}
	},
	"nodes": {
		"node_Wire_4391385a-cf83-4396-9e33-31e4e4930b27_0_0": {
			"name": "node_Wire_4391385a-cf83-4396-9e33-31e4e4930b27_0_0",
			"meshes": [
				"mesh_Wire_4391385a-cf83-4396-9e33-31e4e4930b27_0_0"
			],
			"matrix": [1, 0, 0, 0, 0, 1, 0, 0, 0, 0, 1, 0, 0, 0, 0, 1]
		},
		"node_SceneLight_0_-2792": {
			"name": "node_SceneLight_0_-2792",
			"light": "SceneLight_0",
			"matrix": [1, 0, 0, 0, 0, -1, 0, 0, 0, 0, -1, 0, -6.678283, -3.192506, 4.709272, 1]
		},
		"node_SceneLight_1_-2798": {
			"name": "node_SceneLight_1_-2798",
			"light": "SceneLight_1",
			"matrix": [1, 0, 0, 0, 0, 1, 0, 0, 0, 0, 1, 0, -6.678282, -3.247846, 4.395424, 1]
		}
	},
	"scene": "defaultScene",
	"scenes": {
		"defaultScene": {
			"nodes": [
				"node_Wire_4391385a-cf83-4396-9e33-31e4e4930b27_0_0",
				"node_SceneLight_0_-2792",
				"node_SceneLight_1_-2798"
			],
			"extras": {
				"TB_EnvironmentGuid": "e65cde1a-a177-4bfb-b93f-f673c99a32bc",
				"TB_Environment": "Illustrative",
				"TB_SkyColorA": "0.7647059, 0.7647059, 0.7647059",
				"TB_SkyColorB": "0.6235294, 0.6235294, 0.6235294",
				"TB_SkyGradientDirection": "0, 1, 0",
				"TB_FogColor": "1, 1, 1",
				"TB_FogDensity": "0.0125",
				"TB_SkyColorHorizon": "0.7647059, 0.7647059, 0.7647059",
				"TB_SkyColorZenith": "0.6235294, 0.6235294, 0.6235294"
			}
		}
	}
}